<?xml version="1.0" encoding="UTF-8"?>
<svg version="1.1" xmlns="http://www.w3.org/2000/svg" xmlns:xlink="http://www.w3.org/1999/xlink">
<defs>

</defs>
<symbol id="i-github" viewBox="0 0 30 30" fill="none" xmlns="http://www.w3.org/2000/svg"><path d="M14.998.312C6.716.312 0 7.055 0 15.372a15.058 15.058 0 0010.26 14.29c.75.138 1.024-.327 1.024-.726 0-.358-.013-1.305-.02-2.561-4.173.91-5.054-2.02-5.054-2.02-.68-1.74-1.665-2.203-1.665-2.203-1.363-.934.101-.915.101-.915 1.506.107 2.297 1.553 2.297 1.553 1.339 2.3 3.512 1.637 4.367 1.25.135-.973.523-1.636.952-2.013-3.33-.381-6.832-1.673-6.832-7.442 0-1.645.585-2.989 1.545-4.043-.156-.38-.67-1.912.146-3.984 0 0 1.26-.405 4.125 1.543a14.31 14.31 0 013.756-.506c1.273.007 2.557.172 3.755.508C21.622 6.155 22.88 6.56 22.88 6.56c.817 2.074.303 3.604.15 3.984.962 1.054 1.541 2.398 1.541 4.043 0 5.784-3.506 7.057-6.848 7.43.539.465 1.019 1.384 1.019 2.788 0 2.014-.02 3.638-.02 4.131 0 .403.27.872 1.032.724A15.06 15.06 0 0030 15.372C30 7.055 23.284.312 14.998.312z" fill="#000"/></symbol>
</svg>